<svg width="400" height="400" viewBox="0 0 400 400" fill="none" xmlns="http://www.w3.org/2000/svg">
<mask id="mask0_5968_26622" style="mask-type:alpha" maskUnits="userSpaceOnUse" x="0" y="0" width="400" height="400">
<circle cx="200" cy="200" r="200" fill="#C4C4C4"/>
</mask>
<g mask="url(#mask0_5968_26622)">
<path d="M540 -62.665H-140V419.002H540V-62.665Z" fill="#E3EFEE"/>
<path d="M374.137 111.896C343.395 92.6297 253.692 48.0614 233.519 33.1864C213.317 18.2831 129.479 -32.4619 57.2004 41.6864C-15.078 115.835 -45.9046 138.303 -11.763 218.316C22.3787 298.358 142.739 351.738 226.492 348.168C310.245 344.598 367.79 338.195 403.859 224.266C417.034 161.593 393.715 124.193 374.137 111.896Z" fill="#E3EFEE"/>
<path d="M251.312 306.151C251.312 306.151 255.449 244.328 337.984 224.976C363.399 216.533 367.196 224.976 367.196 224.976C367.196 224.976 422.389 230.275 448.739 307.426L251.312 306.151Z" fill="#173360"/>
<path d="M455.087 329.596H248.254V407.596H455.087V329.596Z" fill="#173360" style="transform: translateY(-42px)" />
<path d="M450.579 315.247C449.361 309.552 448.058 304.48 446.698 300.372C445.508 296.802 444.063 292.552 442.363 288.019C437.518 274.844 430.803 259.147 423.181 249.939C417.033 242.487 387.396 231.494 371.246 226.11C368.101 240.9 336.623 240.929 333.053 226.762C318.801 231.834 290.326 242.997 280.664 251.242C270.436 259.969 263.721 274.702 259.329 288.557C256.808 296.462 255.079 304.084 253.861 310.09C252.728 315.814 252.076 320.092 251.764 321.764C250.716 327.119 249.441 334.117 248.223 341.625H455.056C453.781 332.304 452.279 323.18 450.579 315.247Z" fill="#173360"/>
<path d="M291.344 388.433H290.268L293.413 314.341L288.199 306.011L289.106 305.444L294.489 314.058L294.461 314.228L291.344 388.433Z" fill="#D3D3D3"/>
<path d="M374.363 306.123H393.374C396.321 306.123 398.729 303.714 398.729 300.768V273.029H369.008V300.768C369.008 303.743 371.416 306.123 374.363 306.123Z" fill="#26AEBC"/>
<path d="M373.855 306.122H394.085C397.032 306.122 399.44 303.713 399.44 300.767V275.182H368.5V300.767C368.5 303.742 370.88 306.122 373.855 306.122Z" fill="#1F4275"/>
<path d="M366.996 226.761L352.631 268.297L338.152 226.761H366.996Z" fill="#26AEBC"/>
<path d="M321.404 169.302C321.404 169.302 317.721 148.505 324.266 135.642C332.511 119.464 357.217 111.049 376.116 127.765C388.271 138.504 382.377 171.37 382.377 171.37L341.011 153.52L321.404 169.302Z" fill="#2A3756"/>
<path d="M366.991 226.761C366.991 226.761 355.771 236.395 338.176 226.761L340.726 195.708H364.469L366.991 226.761Z" fill="#E2857E"/>
<path d="M325.708 162.753C325.708 162.753 322.167 160.458 319.418 164.113C316.67 167.768 318.512 181.51 325.368 181.51C332.225 181.51 325.708 162.753 325.708 162.753Z" fill="#D67D7B"/>
<path d="M378.806 162.753C378.806 162.753 382.348 160.458 385.096 164.113C387.844 167.768 386.003 181.51 379.146 181.51C372.289 181.51 378.806 162.753 378.806 162.753Z" fill="#D67D7B"/>
<path d="M379.29 161.565C379.29 146.775 367.333 133.062 352.571 133.062C337.809 133.062 325.853 146.747 325.853 161.565C325.853 161.565 325.258 180.633 325.258 181.54C325.258 195.593 341.918 213.273 352.571 213.273C364.868 213.273 379.998 191.882 379.998 181.228C379.998 180.322 379.29 161.565 379.29 161.565Z" fill="#E2857E"/>
<path d="M325.402 176.132C325.402 176.132 332.004 195.257 336.424 196.589C340.816 197.92 343.224 191.064 352.574 191.177C361.924 191.29 362.831 196.787 368.101 196.419C373.371 196.022 379.859 177.124 379.859 177.124C379.859 177.124 380.539 187.182 378.867 192.65C377.592 196.844 375.156 204.324 371.954 207.299C367.902 211.067 358.184 217.98 352.659 218.122C347.219 218.264 337.047 211.18 333.137 207.412C330.021 204.409 327.556 196.532 326.309 192.395C324.496 186.417 325.402 176.132 325.402 176.132Z" fill="#2A3756"/>
<path d="M358.165 160.178C358.165 160.178 369.3 159.073 371.454 159.271C375.024 159.611 375.817 161.934 376.355 163.209C376.554 163.634 361.792 165.079 359.667 164.314C357.542 163.521 358.165 160.178 358.165 160.178Z" fill="#2A3756"/>
<path d="M347.057 160.178C347.057 160.178 335.922 159.073 333.769 159.271C330.199 159.611 329.406 161.934 328.867 163.209C328.669 163.634 343.431 165.079 345.556 164.314C347.681 163.521 347.057 160.178 347.057 160.178Z" fill="#2A3756"/>
<path opacity="0.2" d="M339.606 164.112L332.211 181.849L338.869 183.917L348.106 169.297L343.204 165.104L339.606 164.112Z" fill="white"/>
<path opacity="0.2" d="M367.091 164.112L359.668 181.849L366.355 183.917L375.591 169.297L370.69 165.104L367.091 164.112Z" fill="white"/>
<path d="M338.87 184.456C333.118 184.456 328.443 179.781 328.443 174.029C328.443 168.278 333.118 163.603 338.87 163.603C344.622 163.603 349.297 168.278 349.297 174.029C349.297 179.753 344.622 184.456 338.87 184.456ZM338.87 164.623C333.685 164.623 329.463 168.844 329.463 174.029C329.463 179.214 333.685 183.436 338.87 183.436C344.055 183.436 348.277 179.214 348.277 174.029C348.277 168.844 344.055 164.623 338.87 164.623Z" fill="#404040"/>
<path d="M366.409 184.456C360.657 184.456 355.982 179.781 355.982 174.029C355.982 168.278 360.657 163.603 366.409 163.603C372.161 163.603 376.836 168.278 376.836 174.029C376.836 179.753 372.161 184.456 366.409 184.456ZM366.409 164.623C361.224 164.623 357.002 168.844 357.002 174.029C357.002 179.214 361.224 183.436 366.409 183.436C371.594 183.436 375.816 179.214 375.816 174.029C375.816 168.844 371.594 164.623 366.409 164.623Z" fill="#404040"/>
<path d="M356.494 173.491H348.787V174.511H356.494V173.491Z" fill="#404040"/>
<path d="M-46.3027 306.034C-46.3027 306.034 -42.3644 247.299 36.0906 228.882C60.2306 220.864 63.4323 228.486 63.4323 228.486C63.4323 228.486 120.666 232.707 145.741 306.034H-46.3027Z" fill="#91E1E5"/>
<path d="M152.117 333.559H-54.7168V407.559H152.117V333.559Z" fill="#26AEBC" style="transform: translateY(-43px)"/>
<path d="M147.612 319.101C146.393 313.413 145.09 308.347 143.73 304.244C142.54 300.678 141.095 296.433 139.395 291.905C134.55 278.746 128.94 261.993 120.213 253.871C109.73 244.079 76.7782 230.241 69.0999 229.42C65.9549 244.192 33.0599 244.73 29.4899 230.58C18.5532 233.127 -10.6018 245.381 -22.2751 255.144C-32.5601 263.747 -39.2185 278.576 -43.6101 292.415C-46.1318 300.31 -47.8601 307.923 -49.0785 313.923C-50.2118 319.639 -50.8635 323.912 -51.1751 325.582C-52.2235 330.931 -53.4985 337.921 -54.7168 345.42H152.117C150.842 336.138 149.312 327.025 147.612 319.101Z" fill="#26AEBC"/>
<path d="M106.612 392.393H107.66L104.543 318.301L109.757 309.971L108.85 309.404L103.467 318.018V318.188L106.612 392.393Z" fill="#B7B7B7"/>
<path d="M61.2528 200.662H38.3878L35.9512 230.554C35.9512 230.554 53.8295 237.609 63.7178 230.554L61.2528 200.662Z" fill="#D67D7B"/>
<path d="M20.4801 174.707C20.4801 174.707 17.0234 155.468 23.1717 143.568C30.9067 128.608 61.4501 114.413 70.3467 119.825C79.2434 125.237 64.2834 133.652 68.4201 135.352C72.5567 137.08 76.2401 127.447 78.9034 129.6C89.6134 138.327 77.7701 176.605 77.7701 176.605L38.8967 160.087L20.4801 174.707Z" fill="#2A3756"/>
<path d="M25.3526 171.305C25.3526 171.305 22.0659 169.18 19.5159 172.58C16.9659 175.98 18.6659 188.674 25.0126 188.674C31.3876 188.674 25.3526 171.305 25.3526 171.305Z" fill="#D67D7B"/>
<path d="M74.4506 171.305C74.4506 171.305 77.7372 169.18 80.2872 172.58C82.8372 175.98 81.1372 188.674 74.7906 188.674C68.4439 188.674 74.4506 171.305 74.4506 171.305Z" fill="#D67D7B"/>
<path d="M75.5349 167.793C75.5349 153.541 64.0316 144.22 49.8082 144.22C35.6132 144.22 24.0816 153.541 24.0816 167.793C24.0816 167.793 22.9766 185.983 22.9766 186.861C22.9766 200.405 39.5516 217.603 49.8082 217.603C61.6516 217.603 76.6399 197.146 76.6399 186.861C76.6682 185.955 75.5349 167.793 75.5349 167.793Z" fill="#E2857E"/>
<path d="M55.2733 167.312C55.2733 167.312 65.8699 166.264 67.9099 166.462C71.3099 166.802 72.0466 168.984 72.5566 170.202C72.7266 170.627 58.7299 171.987 56.6899 171.251C54.6499 170.486 55.2733 167.312 55.2733 167.312Z" fill="#2A3756"/>
<path d="M44.7087 167.312C44.7087 167.312 34.112 166.264 32.072 166.462C28.672 166.802 27.9354 168.984 27.4254 170.202C27.2554 170.627 41.252 171.987 43.292 171.251C45.3037 170.486 44.7087 167.312 44.7087 167.312Z" fill="#2A3756"/>
<path opacity="0.2" d="M37.6302 171.025L30.6035 187.912L36.9502 189.895L45.7052 175.984L41.0585 171.989L37.6302 171.025Z" fill="white"/>
<path opacity="0.2" d="M63.7542 171.025L56.6992 187.912L63.0459 189.895L71.8292 175.984L67.1542 171.989L63.7542 171.025Z" fill="white"/>
<path d="M36.9518 190.377C31.4835 190.377 27.0352 185.929 27.0352 180.461C27.0352 174.992 31.4835 170.544 36.9518 170.544C42.4202 170.544 46.8685 174.992 46.8685 180.461C46.8685 185.929 42.4202 190.377 36.9518 190.377ZM36.9518 171.536C32.0218 171.536 28.0268 175.531 28.0268 180.461C28.0268 185.391 32.0218 189.386 36.9518 189.386C41.8818 189.386 45.8768 185.391 45.8768 180.461C45.8768 175.531 41.8818 171.536 36.9518 171.536Z" fill="#404040"/>
<path d="M63.1003 190.377C57.6319 190.377 53.1836 185.929 53.1836 180.461C53.1836 174.992 57.6319 170.544 63.1003 170.544C68.5686 170.544 73.0169 174.992 73.0169 180.461C73.0169 185.929 68.5686 190.377 63.1003 190.377ZM63.1003 171.536C58.1703 171.536 54.1753 175.531 54.1753 180.461C54.1753 185.391 58.1703 189.386 63.1003 189.386C68.0303 189.386 72.0253 185.391 72.0253 180.461C72.0536 175.531 68.0303 171.536 63.1003 171.536Z" fill="#404040"/>
<path d="M53.6977 179.979H46.3594V180.971H53.6977V179.979Z" fill="#404040"/>
<path d="M45.5527 196.412H55.2144L50.3694 198.254L45.5527 196.412Z" fill="#CC7979"/>
<path d="M95.7578 304.65C95.7578 304.65 99.9511 237.811 183.591 216.901C209.346 207.778 213.199 216.901 213.199 216.901C213.199 216.901 273.776 221.265 300.494 304.65H95.7578Z" fill="white"/>
<path d="M312 342.001H86V424.001H312V342.001Z" fill="white"/>
<path d="M307.799 315.711C306.468 309.423 305.051 303.792 303.549 299.276C302.246 295.332 300.659 290.644 298.818 285.614C293.491 271.036 286.124 253.658 277.794 243.482C271.051 235.251 238.553 223.074 220.844 217.101C217.416 233.479 182.878 233.479 178.968 217.815C163.328 223.446 132.133 235.765 121.536 244.883C110.344 254.515 102.949 270.836 98.1326 286.157C95.3842 294.903 93.4576 303.335 92.1542 309.966C90.9076 316.311 90.1992 321.028 89.8309 322.885C88.6976 328.831 87.3317 334.783 86 343.101H312C310.612 332.811 309.669 324.457 307.799 315.711Z" fill="white"/>
<path d="M133.211 395.061H132.049L135.477 313.83L129.754 304.706L130.746 304.083L136.639 313.518V313.716L133.211 395.061Z" fill="#E5E5E5"/>
<path d="M262.835 395.061H263.996L260.568 313.83L266.291 304.706L265.3 304.083L259.406 313.518V313.716L262.835 395.061Z" fill="#E5E5E5"/>
<path d="M216.319 216.958L204.561 295.016L184.246 216.958H216.319Z" fill="#FF264D"/>
<path d="M246.556 302.5C226.558 269.288 255.404 230.953 235.92 194.455C232.15 187.389 224.346 177.302 217.975 177.302L214.17 193.855L215.94 215.76C215.657 240.881 212.843 250.88 214.542 269.288C216.223 287.908 227.673 303.206 246.556 302.5Z" fill="#151C28"/>
<path d="M166.431 152.443C166.431 152.443 162.436 130.23 169.547 116.488C178.501 99.2049 205.219 89.6849 225.789 108.073C240.126 120.88 232.589 154.653 232.589 154.653L187.709 135.585L166.431 152.443Z" fill="#151C28"/>
<path d="M216.319 216.957C216.319 216.957 197.478 226.902 184.246 216.957L187.079 182.419H213.486L216.319 216.957Z" fill="#723939"/>
<path d="M172.039 148.562C172.039 148.562 168.242 146.097 165.324 150.035C162.377 153.945 164.332 168.622 171.67 168.622C179.009 168.593 172.039 148.562 172.039 148.562Z" fill="#723939"/>
<path d="M228.765 148.562C228.765 148.562 232.561 146.097 235.508 150.035C238.455 153.945 236.5 168.622 229.161 168.622C221.795 168.593 228.765 148.562 228.765 148.562Z" fill="#723939"/>
<path d="M230.105 145.807C230.105 133.476 222.46 121.393 211.788 117.595C202.851 119.485 172.235 131.321 169.404 146.16C169.404 146.16 169.191 163.862 169.191 164.869C169.191 180.485 188.357 200.324 200.214 200.324C213.894 200.324 231.237 176.705 231.237 164.869C231.237 163.862 230.105 145.807 230.105 145.807Z" fill="#894846"/>
<path d="M206.397 145.841C206.397 145.841 218.637 144.623 220.989 144.849C224.927 145.218 225.749 147.768 226.372 149.156C226.57 149.638 210.392 151.224 208.04 150.374C205.689 149.524 206.397 145.841 206.397 145.841Z" fill="#151C28"/>
<path d="M194.176 145.841C194.176 145.841 181.936 144.623 179.584 144.849C175.646 145.218 174.824 147.768 174.201 149.156C174.003 149.638 190.181 151.224 192.533 150.374C194.884 149.524 194.176 145.841 194.176 145.841Z" fill="#151C28"/>
<path opacity="0.2" d="M186.018 150.145L177.887 169.61L185.225 171.905L195.34 155.84L189.957 151.221L186.018 150.145Z" fill="white"/>
<path opacity="0.2" d="M216.167 150.145L208.035 169.61L215.373 171.905L225.517 155.84L220.133 151.221L216.167 150.145Z" fill="white"/>
<path d="M185.224 172.469C178.906 172.469 173.777 167.34 173.777 161.022C173.777 154.704 178.906 149.575 185.224 149.575C191.542 149.575 196.671 154.704 196.671 161.022C196.671 167.34 191.542 172.469 185.224 172.469ZM185.224 150.709C179.529 150.709 174.911 155.327 174.911 161.022C174.911 166.717 179.529 171.335 185.224 171.335C190.919 171.335 195.537 166.717 195.537 161.022C195.537 155.327 190.919 150.709 185.224 150.709Z" fill="white"/>
<path d="M215.427 172.469C209.109 172.469 203.98 167.34 203.98 161.022C203.98 154.704 209.109 149.575 215.427 149.575C221.745 149.575 226.874 154.704 226.874 161.022C226.874 167.34 221.745 172.469 215.427 172.469ZM215.427 150.709C209.732 150.709 205.114 155.327 205.114 161.022C205.114 166.717 209.732 171.335 215.427 171.335C221.122 171.335 225.74 166.717 225.74 161.022C225.769 155.327 221.122 150.709 215.427 150.709Z" fill="white"/>
<path d="M204.573 160.456H196.102V161.589H204.573V160.456Z" fill="white"/>
<path d="M170.268 173.92C170.438 173.864 170.608 173.835 170.778 173.75L170.155 172.305C170.07 172.334 169.957 172.362 169.843 172.39C167.01 173.155 164.092 171.455 163.327 168.622C162.562 165.789 164.262 162.87 167.095 162.105L166.698 160.575C163.015 161.567 160.834 165.364 161.825 169.047C162.789 172.73 166.585 174.912 170.268 173.92Z" fill="white"/>
<path d="M230.193 173.92C229.994 173.864 229.768 173.807 229.598 173.722C229.739 173.779 230.249 172.277 230.249 172.277C230.363 172.305 230.476 172.362 230.618 172.39C233.451 173.155 236.369 171.455 237.134 168.622C237.899 165.789 236.199 162.87 233.366 162.105L233.791 160.575C237.474 161.567 239.656 165.364 238.664 169.047C237.673 172.73 233.876 174.912 230.193 173.92Z" fill="white"/>
<path d="M195.18 179.415H206.343L200.761 181.568L195.18 179.415Z" fill="#602F2F"/>
<path d="M226.122 293.286L223.034 291.983C232.1 270.308 230.797 252.09 228.077 240.643C226.093 232.313 221.758 222.198 216.29 216.984L216.035 212.479C218.783 214.378 221.617 217.579 224.11 221.659C227.255 226.788 229.748 233.106 231.363 239.878C234.168 251.834 235.528 270.789 226.122 293.286Z" fill="#404040"/>
<path d="M176.314 230.925L173.141 229.876C175.294 223.331 179.544 216.616 184.672 212.14L184.276 216.985C180.677 220.838 177.901 226.051 176.314 230.925Z" fill="#404040"/>
<path d="M234.826 292.633C234.826 298.299 230.236 302.861 224.598 302.861C218.931 302.861 214.369 298.271 214.369 292.633C214.369 286.966 218.959 282.404 224.598 282.404C230.236 282.404 234.826 286.994 234.826 292.633Z" fill="#404040"/>
<path d="M230.261 292.633C230.261 295.778 227.711 298.3 224.594 298.3C221.449 298.3 218.928 295.75 218.928 292.633C218.928 289.517 221.478 286.967 224.594 286.967C227.711 286.967 230.261 289.517 230.261 292.633Z" fill="#3B4E75"/>
<path d="M159.94 249.512C159.401 240.446 166.088 232.626 174.815 232.059C178.951 231.804 182.946 233.192 186.12 235.969C189.435 238.887 191.39 242.967 191.673 247.472L192.325 258.579L195.668 258.324L195.016 247.274C194.705 241.891 192.325 236.989 188.33 233.447C184.505 230.076 179.631 228.376 174.588 228.716C163.991 229.396 155.916 238.802 156.568 249.711L157.248 261.129L160.591 260.874L159.94 249.512Z" fill="#404040"/>
<path d="M193.599 279.46C193.854 283.852 192.466 288.102 189.633 291.388L192.183 293.57C195.583 289.603 197.254 284.532 196.943 279.262L195.696 258.323L192.353 258.578L193.599 279.46Z" fill="#E6E5EA"/>
<path d="M165.661 295.922L167.786 293.344C164.273 290.454 162.119 286.119 161.836 281.501L160.589 260.874L157.246 261.129L158.493 281.699C158.833 287.252 161.439 292.437 165.661 295.922Z" fill="#E6E5EA"/>
<path d="M170.31 295.015C170.31 296.857 168.808 298.387 166.938 298.387C165.068 298.387 163.566 296.885 163.566 295.015C163.566 293.174 165.068 291.644 166.938 291.644C168.808 291.644 170.31 293.145 170.31 295.015Z" fill="#404040"/>
<path d="M193.341 293.656C193.341 295.498 191.839 297.028 189.969 297.028C188.128 297.028 186.598 295.526 186.598 293.656C186.598 291.814 188.099 290.284 189.969 290.284C191.839 290.284 193.341 291.786 193.341 293.656Z" fill="#404040"/>
</g>
</svg>
